<svg width="24" height="24" viewBox="0 0 24 24" fill="none" xmlns="http://www.w3.org/2000/svg">
<path d="M20.1 13.8C20.5616 13.8 20.942 14.1474 20.9939 14.595L21 14.7V18.3C21 19.7379 19.876 20.9133 18.4586 20.9954L18.3 21H5.7C4.26209 21 3.08671 19.876 3.00458 18.4586L3 18.3V14.7C3 14.2029 3.40294 13.8 3.9 13.8C4.36155 13.8 4.74196 14.1474 4.79395 14.595L4.8 14.7V18.3C4.8 18.7616 5.14744 19.142 5.59504 19.1939L5.7 19.2H18.3C18.7616 19.2 19.142 18.8526 19.1939 18.405L19.2 18.3V14.7C19.2 14.2029 19.6029 13.8 20.1 13.8Z" fill="white"/>
<path d="M6.8636 9.5636C7.18804 9.23917 7.69855 9.21421 8.05161 9.48873L8.1364 9.5636L12 13.4265L15.8636 9.5636C16.188 9.23917 16.6985 9.21421 17.0516 9.48873L17.1364 9.5636C17.4608 9.88804 17.4858 10.3985 17.2113 10.7516L17.1364 10.8364L12.6364 15.3364C12.312 15.6608 11.8015 15.6858 11.4484 15.4113L11.3636 15.3364L6.8636 10.8364C6.51213 10.4849 6.51213 9.91508 6.8636 9.5636Z" fill="white"/>
<path d="M12 3C12.4616 3 12.842 3.34744 12.8939 3.79504L12.9 3.9V14.7C12.9 15.1971 12.4971 15.6 12 15.6C11.5384 15.6 11.158 15.2526 11.1061 14.805L11.1 14.7V3.9C11.1 3.40294 11.5029 3 12 3Z" fill="white"/>
</svg>
