<svg width="133" height="140" viewBox="0 0 133 140" fill="none" xmlns="http://www.w3.org/2000/svg">
<path d="M71.9022 9.04453C37.4602 7.4659 7.50865 48.2046 1.74796 76.1134C-7.58628 121.333 21.874 152.126 56.5632 135.372C91.4252 118.524 141.147 96.8265 131.866 58.1629C125.2 30.4063 102.579 10.4481 71.9022 9.04453Z" fill="url(#paint0_linear_891_36636)"/>
<path d="M29.2197 76.5C29.2197 75.8705 29.5184 75.2777 30.0258 74.9L34.7278 71.4C35.0766 71.1404 35.5009 71 35.9369 71H102.449C102.849 71 103.24 71.1179 103.572 71.3388L108.933 74.9058C109.491 75.2772 109.826 75.9002 109.826 76.5671V128C109.826 129.105 108.924 130 107.811 130H31.2349C30.1219 130 29.2197 129.105 29.2197 128V76.5Z" fill="#FF8C00"/>
<path d="M35.2656 46C35.2656 44.8954 36.1678 44 37.2808 44H100.758C101.871 44 102.773 44.8954 102.773 46V78.3862C102.773 79.0118 102.478 79.6014 101.976 79.9796L74.5974 100.593C74.247 100.857 73.8192 101 73.3794 101H65.1538C64.7198 101 64.2973 100.861 63.9494 100.603L36.0763 79.9792C35.5662 79.6017 35.2656 79.0073 35.2656 78.3757V46Z" fill="#FFCC00"/>
<path d="M66.5266 99.9481C67.9893 98.8052 70.0502 98.8052 71.5128 99.9481L83.4174 109.25H54.6221L66.5266 99.9481Z" fill="#FF8C00"/>
<path fill-rule="evenodd" clip-rule="evenodd" d="M108.062 113L108.062 127C108.062 127.414 107.724 127.75 107.307 127.75L25.6932 127.75C25.4927 127.75 25.3005 127.671 25.1588 127.53C25.0171 127.39 24.9375 127.199 24.9375 127L24.9375 71C24.9375 70.7577 25.0554 70.5304 25.2539 70.3897L32.307 65.3897C32.6466 65.1489 33.1185 65.227 33.3611 65.564C33.6037 65.9011 33.525 66.3695 33.1854 66.6103L26.9587 71.0245L62.0959 98.0511L63.0947 97.2829C64.8036 95.9684 67.1883 95.9543 68.9129 97.2484L69.994 98.0597L106.003 71.0384L99.3308 66.624C98.9836 66.3942 98.8897 65.9286 99.1212 65.5839C99.3527 65.2393 99.8219 65.1462 100.169 65.3759L107.726 70.3759C107.936 70.515 108.062 70.7492 108.062 71L108.062 102.5C108.062 102.914 107.724 103.25 107.307 103.25C106.889 103.25 106.551 102.914 106.551 102.5L106.551 72.5073L71.247 99L106.551 125.493L106.551 113C106.551 112.586 106.889 112.25 107.307 112.25C107.724 112.25 108.062 112.586 108.062 113ZM105.054 126.25L68.0014 98.4449C66.8214 97.5595 65.1898 97.5691 64.0205 98.4685L52.3205 107.468C51.9907 107.722 51.516 107.662 51.2603 107.334C51.0047 107.007 51.0648 106.536 51.3947 106.282L60.8623 99L26.4489 72.5301L26.4488 125.47L43.4316 112.407C43.7615 112.153 44.2362 112.213 44.4918 112.541C44.7475 112.868 44.6873 113.339 44.3574 113.593L27.9019 126.25L105.054 126.25ZM108.062 105L108.062 109.5C108.062 109.914 107.724 110.25 107.307 110.25C106.889 110.25 106.551 109.914 106.551 109.5L106.551 105C106.551 104.586 106.889 104.25 107.307 104.25C107.724 104.25 108.062 104.586 108.062 105ZM50.9742 107.538C51.2312 107.864 51.1729 108.336 50.8441 108.591L48.9102 110.091C48.5814 110.346 48.1065 110.288 47.8495 109.962C47.5925 109.635 47.6507 109.164 47.9796 108.909L49.9135 107.409C50.2423 107.154 50.7172 107.212 50.9742 107.538Z" fill="#452464"/>
<path fill-rule="evenodd" clip-rule="evenodd" d="M31.9906 76.5L31.9906 52L33.502 52L33.502 76.5L31.9906 76.5Z" fill="#452464"/>
<path fill-rule="evenodd" clip-rule="evenodd" d="M99.7502 77.25C99.3328 77.25 98.9945 76.9142 98.9945 76.5V58.5C98.9945 58.0858 99.3328 57.75 99.7502 57.75C100.168 57.75 100.506 58.0858 100.506 58.5V76.5C100.506 76.9142 100.168 77.25 99.7502 77.25ZM99.7502 57C99.3328 57 98.9945 56.6642 98.9945 56.25V54C98.9945 53.5858 99.3328 53.25 99.7502 53.25C100.168 53.25 100.506 53.5858 100.506 54V56.25C100.506 56.6642 100.168 57 99.7502 57ZM99.7502 50.25C99.3328 50.25 98.9945 49.9142 98.9945 49.5V42.5C98.9945 41.8096 98.4306 41.25 97.735 41.25L50.379 41.25C49.9616 41.25 49.6233 40.9142 49.6233 40.5C49.6233 40.0858 49.9616 39.75 50.379 39.75L97.735 39.75C99.2653 39.75 100.506 40.9812 100.506 42.5V49.5C100.506 49.9142 100.168 50.25 99.7502 50.25Z" fill="#452464"/>
<path fill-rule="evenodd" clip-rule="evenodd" d="M50.3789 58.25C50.3789 57.8358 50.7172 57.5 51.1346 57.5H78.8429C79.2603 57.5 79.5986 57.8358 79.5986 58.25C79.5986 58.6642 79.2603 59 78.8429 59H51.1346C50.7172 59 50.3789 58.6642 50.3789 58.25Z" fill="#452464"/>
<path fill-rule="evenodd" clip-rule="evenodd" d="M50.3789 70.25C50.3789 69.8358 50.7172 69.5 51.1346 69.5H71.7899C72.2072 69.5 72.5456 69.8358 72.5456 70.25C72.5456 70.6642 72.2072 71 71.7899 71H51.1346C50.7172 71 50.3789 70.6642 50.3789 70.25Z" fill="#452464"/>
<path fill-rule="evenodd" clip-rule="evenodd" d="M50.3789 64.25C50.3789 63.8358 50.7172 63.5 51.1346 63.5H82.8732C83.2906 63.5 83.6289 63.8358 83.6289 64.25C83.6289 64.6642 83.2906 65 82.8732 65H51.1346C50.7172 65 50.3789 64.6642 50.3789 64.25Z" fill="#452464"/>
<path d="M59.4468 26.963C59.4468 41.8542 47.7515 53.9259 33.3245 53.9259C18.8975 53.9259 7.20215 41.8542 7.20215 26.963C7.20215 12.0717 18.8975 0 33.3245 0C47.7515 0 59.4468 12.0717 59.4468 26.963Z" fill="white"/>
<path fill-rule="evenodd" clip-rule="evenodd" d="M31.8688 19.5059L30.276 17.0923C30.1043 16.8322 29.7144 16.8596 29.5808 17.1411L28.3422 19.7506C28.1374 20.1821 27.6142 20.3609 27.1852 20.146L24.5904 18.8465C24.3112 18.7067 23.9865 18.9265 24.0127 19.2377L24.2543 22.108C24.2943 22.5834 23.9314 22.9978 23.4515 23.0246L20.554 23.1866C20.241 23.2041 20.0689 23.5584 20.2486 23.8153L21.9018 26.1782C22.1759 26.5699 22.0703 27.109 21.6683 27.3703L19.2436 28.9465C18.9804 29.1176 19.0079 29.5113 19.2922 29.6442L21.9149 30.8704C22.3497 31.0737 22.5298 31.5929 22.3133 32.0187L21.0072 34.5875C20.8653 34.8667 21.0847 35.1933 21.3969 35.1674L24.2902 34.9275C24.7691 34.8878 25.1867 35.2481 25.2137 35.7243L25.377 38.6013C25.3947 38.9129 25.7464 39.0851 26.0033 38.908L28.3911 37.2624C28.7859 36.9903 29.329 37.0951 29.5923 37.4941L31.1851 39.9077C31.3568 40.1678 31.7467 40.1404 31.8803 39.8589L33.1189 37.2494C33.3237 36.8179 33.8469 36.6391 34.2759 36.854L36.8707 38.1535C37.15 38.2933 37.4746 38.0735 37.4484 37.7623L37.2068 34.892C37.1668 34.4166 37.5298 34.0022 38.0096 33.9754L40.9071 33.8134C41.2201 33.7959 41.3922 33.4416 41.2125 33.1847L39.5593 30.8218C39.2852 30.4301 39.3908 29.891 39.7928 29.6297L42.2175 28.0535C42.4807 27.8824 42.4532 27.4887 42.1689 27.3558L39.5462 26.1296C39.1114 25.9263 38.9313 25.4071 39.1478 24.9813L40.4539 22.4125C40.5958 22.1333 40.3764 21.8067 40.0643 21.8326L37.1709 22.0725C36.692 22.1122 36.2745 21.7519 36.2474 21.2757L36.0841 18.3987C36.0665 18.0871 35.7147 17.9149 35.4578 18.092L33.07 19.7376C32.6752 20.0097 32.1321 19.9049 31.8688 19.5059ZM35.5141 25.1667C35.9076 25.5572 35.9076 26.1904 35.5141 26.5809L29.9724 32.0809C29.5789 32.4714 28.941 32.4714 28.5475 32.0809L26.0285 29.5809C25.6351 29.1904 25.6351 28.5572 26.0285 28.1667C26.422 27.7761 27.06 27.7761 27.4535 28.1667L29.2599 29.9596L34.0891 25.1667C34.4826 24.7761 35.1206 24.7761 35.5141 25.1667Z" fill="#8E4DFF"/>
<path fill-rule="evenodd" clip-rule="evenodd" d="M30.7309 2.75C16.4018 2.75 4.78578 14.2787 4.78578 28.5C4.78578 42.7213 16.4018 54.25 30.7309 54.25C36.6742 54.25 42.1488 52.2675 46.5231 48.9321C46.8541 48.6798 47.3285 48.7415 47.5827 49.07C47.837 49.3984 47.7748 49.8693 47.4439 50.1216C42.8148 53.6513 37.0187 55.75 30.7309 55.75C15.5671 55.75 3.27441 43.5498 3.27441 28.5C3.27441 13.4502 15.5671 1.25 30.7309 1.25C45.8946 1.25 58.1873 13.4502 58.1873 28.5C58.1873 32.1312 57.4713 35.5982 56.171 38.7683C56.0137 39.1519 55.5727 39.3363 55.1862 39.1802C54.7996 39.024 54.6138 38.5864 54.7712 38.2027C55.9991 35.2092 56.6759 31.934 56.6759 28.5C56.6759 14.2787 45.0599 2.75 30.7309 2.75Z" fill="#452464"/>
<defs>
<linearGradient id="paint0_linear_891_36636" x1="-11.2271" y1="67.0983" x2="67.0694" y2="149.605" gradientUnits="userSpaceOnUse">
<stop stop-color="#EDE5FC"/>
<stop offset="1" stop-color="#EBDEFF"/>
</linearGradient>
</defs>
</svg>
