<svg width="133" height="140" viewBox="0 0 133 140" fill="none" xmlns="http://www.w3.org/2000/svg">
<path fill-rule="evenodd" clip-rule="evenodd" d="M131.415 70.8081C140.851 109.902 96.9338 131.822 66.2474 136.495C26.2248 142.588 -6.4233 112.239 1.08004 71.6826C6.32093 43.3548 31.5087 1.43653 66.2474 6.00969C96.2751 9.9664 124.642 42.7383 131.415 70.8081Z" fill="#EDE5FC"/>
<path d="M6.3817 123.774L0.362793 136.619V140H126.76V136.619L121.527 123.774H6.3817Z" fill="#8E4DFF"/>
<path d="M0.362793 136.394H126.76V140H0.362793V136.394Z" fill="#452464"/>
<path d="M127.052 32.094C127.052 49.819 113.236 64.188 96.1931 64.188C79.1501 64.188 65.334 49.819 65.334 32.094C65.334 14.369 79.1501 0 96.1931 0C113.236 0 127.052 14.369 127.052 32.094Z" fill="white"/>
<path fill-rule="evenodd" clip-rule="evenodd" d="M90.8807 23.1802C91.515 22.1344 92.6494 21.4957 93.8725 21.4957C95.0957 21.4957 96.2301 22.1344 96.8678 23.1857L106.757 39.6953C107.379 40.772 107.382 42.0978 106.767 43.178C106.151 44.2582 105.008 44.9306 103.752 44.9443L83.9801 44.9443C82.7369 44.9306 81.5942 44.2582 80.9785 43.178C80.3628 42.0978 80.3665 40.772 80.9978 39.6792L90.8807 23.1802ZM94.8698 24.3901C94.6584 24.0415 94.2803 23.8286 93.8725 23.8286C93.4648 23.8286 93.0867 24.0415 92.8786 24.3845L83.0085 40.8619C82.8013 41.2208 82.8 41.6627 83.0052 42.0228C83.2105 42.3829 83.5914 42.607 83.993 42.6115L103.739 42.6115C104.154 42.607 104.535 42.3829 104.74 42.0228C104.945 41.6627 104.944 41.2208 104.746 40.878L94.8698 24.3901ZM93.8725 28.6142C94.4707 28.6142 94.9637 29.0645 95.0311 29.6446L95.039 29.7806V34.4464C95.039 35.0906 94.5167 35.6128 93.8725 35.6128C93.2744 35.6128 92.7813 35.1625 92.714 34.5824L92.7061 34.4464V29.7806C92.7061 29.1364 93.2283 28.6142 93.8725 28.6142ZM95.0506 39.1121C95.0506 38.4679 94.5284 37.9457 93.8842 37.9457L93.7365 37.9536C93.1564 38.0209 92.7061 38.514 92.7061 39.1121C92.7061 39.7564 93.2283 40.2786 93.8725 40.2786L94.0202 40.2707C94.6003 40.2034 95.0506 39.7103 95.0506 39.1121Z" fill="#8E4DFF"/>
<path fill-rule="evenodd" clip-rule="evenodd" d="M93.129 3.27251C76.2016 3.27251 62.4793 16.9951 62.4793 33.9227C62.4793 50.8503 76.2016 64.5729 93.129 64.5729C100.15 64.5729 106.617 62.2132 111.785 58.243C112.176 57.9427 112.736 58.0161 113.037 58.4071C113.337 58.798 113.264 59.3585 112.873 59.6589C107.404 63.8603 100.557 66.3583 93.129 66.3583C75.2155 66.3583 60.6938 51.8364 60.6938 33.9227C60.6938 16.009 75.2155 1.48706 93.129 1.48706C111.042 1.48706 125.564 16.009 125.564 33.9227C125.564 38.2449 124.718 42.3717 123.182 46.145C122.996 46.6017 122.475 46.8212 122.019 46.6353C121.562 46.4494 121.343 45.9285 121.529 45.4718C122.979 41.9086 123.779 38.0101 123.779 33.9227C123.779 16.9951 110.056 3.27251 93.129 3.27251Z" fill="#452464"/>
<path d="M97.0534 121.436H22.6074L57.9717 18.1646C58.5587 16.4101 61.1021 16.4101 61.6891 18.1646L97.0534 121.436Z" fill="#FF8C00"/>
<path d="M29.7979 100.48H89.9122L82.6242 79.2308H37.037L29.7979 100.48Z" fill="white"/>
<path d="M43.3955 60.809H76.3141L69.0261 39.5114H50.6347L43.3955 60.809Z" fill="white"/>
<path d="M97.0903 126.846H22.4728C19.5803 126.846 17.2271 124.441 17.2271 121.485C17.2271 118.529 19.5803 116.124 22.4728 116.124H97.0903C99.9829 116.124 102.336 118.529 102.336 121.485C102.336 124.441 99.9829 126.846 97.0903 126.846Z" fill="#FF8C00"/>
<path fill-rule="evenodd" clip-rule="evenodd" d="M19.8004 118.434C17.0755 118.434 14.8666 120.635 14.8666 123.35C14.8666 126.065 17.0755 128.266 19.8004 128.266H67.7354C68.2522 128.266 68.6712 128.683 68.6712 129.198C68.6712 129.713 68.2522 130.13 67.7354 130.13H19.8004C16.042 130.13 12.9951 127.095 12.9951 123.35C12.9951 119.605 16.042 116.569 19.8004 116.569H35.4527C35.9695 116.569 36.3884 116.987 36.3884 117.501C36.3884 118.016 35.9695 118.434 35.4527 118.434H19.8004ZM44.5442 117.501C44.5442 116.987 44.9631 116.569 45.4799 116.569H94.1486C97.907 116.569 100.954 119.605 100.954 123.35C100.954 127.095 97.9071 130.13 94.1486 130.13H78.4963C77.9795 130.13 77.5606 129.713 77.5606 129.198C77.5606 128.683 77.9795 128.266 78.4963 128.266H94.1486C96.8735 128.266 99.0824 126.065 99.0824 123.35C99.0824 120.635 96.8735 118.434 94.1486 118.434H45.4799C44.9631 118.434 44.5442 118.016 44.5442 117.501Z" fill="#452464"/>
<path fill-rule="evenodd" clip-rule="evenodd" d="M57.8601 18.6809C57.5719 17.8392 56.3771 17.8392 56.0889 18.681L43.4282 55.6615C43.2613 56.1488 42.7296 56.4091 42.2404 56.2429C41.7513 56.0766 41.4901 55.5468 41.6569 55.0594L54.3176 18.0789C55.1822 15.5536 58.7668 15.5536 59.6314 18.0789L75.7135 65.0529C75.8803 65.5402 75.6191 66.0701 75.13 66.2363C74.6408 66.4025 74.1091 66.1422 73.9422 65.6549L57.8601 18.6809ZM32.2073 85.5485C32.6964 85.7148 32.9577 86.2446 32.7908 86.7319L22.5757 116.569H31.9052C32.422 116.569 32.8409 116.987 32.8409 117.501C32.8409 118.016 32.422 118.434 31.9052 118.434H19.96L31.0196 86.1299C31.1864 85.6426 31.7182 85.3823 32.2073 85.5485ZM83.4524 90.5452C83.9415 90.379 84.4733 90.6393 84.6401 91.1266L86.8718 97.6451C87.0387 98.1324 86.7774 98.6623 86.2883 98.8285C85.7992 98.9947 85.2674 98.7344 85.1006 98.2471L82.8689 91.7287C82.7021 91.2413 82.9633 90.7115 83.4524 90.5452ZM87.9158 103.582C88.4049 103.416 88.9366 103.676 89.1035 104.164L93.9891 118.434H83.7545C83.2377 118.434 82.8188 118.016 82.8188 117.501C82.8188 116.987 83.2377 116.569 83.7545 116.569H91.3733L87.3322 104.766C87.1654 104.278 87.4266 103.748 87.9158 103.582Z" fill="#452464"/>
</svg>
