<svg width="24" height="24" viewBox="0 0 24 24" fill="none" xmlns="http://www.w3.org/2000/svg">
<path fill-rule="evenodd" clip-rule="evenodd" d="M3 12C3 7.02944 7.02944 3 12 3C16.9706 3 21 7.02944 21 12C21 16.9706 16.9706 21 12 21C7.02944 21 3 16.9706 3 12ZM19.4789 12C19.4789 7.86953 16.1305 4.52113 12 4.52113C7.86953 4.52113 4.52113 7.86953 4.52113 12C4.52113 16.1305 7.86953 19.4789 12 19.4789C16.1305 19.4789 19.4789 16.1305 19.4789 12ZM8.88486 9.27578C9.4079 7.78893 10.9271 6.8961 12.4805 7.16256C14.034 7.42903 15.1688 8.77708 15.1665 10.3521C15.1665 11.3809 14.5542 12.1973 13.5919 12.8388C13.0627 13.1916 12.5422 13.423 12.1746 13.5455C11.7761 13.6783 11.3454 13.4629 11.2126 13.0645C11.0797 12.666 11.2951 12.2352 11.6936 12.1024C11.944 12.0189 12.3504 11.8383 12.7481 11.5732C13.3307 11.1848 13.6454 10.7652 13.6454 10.351C13.6466 9.51654 13.0458 8.80286 12.2234 8.66179C11.401 8.52073 10.5967 8.9934 10.3198 9.78056C10.1804 10.1768 9.74618 10.385 9.34994 10.2456C8.95369 10.1062 8.74547 9.67203 8.88486 9.27578ZM12.7688 16.1197C12.7688 15.6997 12.4283 15.3592 12.0082 15.3592L11.8766 15.3691C11.5153 15.4281 11.2394 15.7417 11.2394 16.1197C11.2394 16.5398 11.58 16.8803 12.0082 16.8803L12.1316 16.8703C12.493 16.8114 12.7688 16.4978 12.7688 16.1197Z" fill="#1A1A1A"/>
</svg>
