<svg width="24" height="24" viewBox="0 0 24 24" fill="none" xmlns="http://www.w3.org/2000/svg">
<path fill-rule="evenodd" clip-rule="evenodd" d="M11.4295 3.17235L4.06587 8.89962C3.86657 9.05463 3.75 9.29297 3.75 9.54545V18.5455C3.75 19.9011 4.84894 21 6.20455 21H9.47727H14.3864H17.6591C19.0147 21 20.1136 19.9011 20.1136 18.5455V9.54545C20.1136 9.29297 19.9971 9.05463 19.7978 8.89962L12.4341 3.17235C12.1387 2.94255 11.725 2.94255 11.4295 3.17235ZM15.2045 19.3636H17.6591C18.111 19.3636 18.4773 18.9973 18.4773 18.5455V9.94555L11.9318 4.854L5.38636 9.94473V18.5455C5.38636 18.965 5.70221 19.3109 6.10913 19.3581L6.20455 19.3636H8.65909V12C8.65909 11.5804 8.97494 11.2346 9.38186 11.1873L9.47727 11.1818H14.3864C14.806 11.1818 15.1518 11.4977 15.199 11.9046L15.2045 12V19.3636ZM10.2955 19.3636V12.8182H13.5682V19.3636H10.2955Z" fill="#1A1A1A"/>
</svg>
