<svg width="24" height="24" viewBox="0 0 24 24" fill="none" xmlns="http://www.w3.org/2000/svg">
<path fill-rule="evenodd" clip-rule="evenodd" d="M5.69973 3H18.2985C19.7895 3 20.9982 4.20871 20.9982 5.69973V14.6988C20.9982 16.1898 19.7895 17.3986 18.2985 17.3986H7.87211L4.53624 20.7346C3.99398 21.2769 3.08353 20.9331 3.00538 20.2005L3 20.0983V5.69973C3 4.20871 4.20871 3 5.69973 3ZM18.2985 4.79982H5.69973C5.20272 4.79982 4.79982 5.20272 4.79982 5.69973V17.925L6.86322 15.8623C7.00385 15.7217 7.18625 15.6324 7.38126 15.6065L7.49955 15.5987H18.2985C18.7955 15.5987 19.1984 15.1958 19.1984 14.6988V5.69973C19.1984 5.20272 18.7955 4.79982 18.2985 4.79982Z" fill="#1A1A1A"/>
</svg>
