<svg width="24" height="24" viewBox="0 0 24 24" fill="none" xmlns="http://www.w3.org/2000/svg">
<path fill-rule="evenodd" clip-rule="evenodd" d="M12 2.875C7.02944 2.875 3 6.90444 3 11.875C3 16.8456 7.02944 20.875 12 20.875C16.9706 20.875 21 16.8456 21 11.875C21 6.90444 16.9706 2.875 12 2.875ZM12 4.51136C16.0668 4.51136 19.3636 7.80818 19.3636 11.875C19.3636 15.9418 16.0668 19.2386 12 19.2386C7.93318 19.2386 4.63636 15.9418 4.63636 11.875C4.63636 7.80818 7.93318 4.51136 12 4.51136ZM12 5.05682C12.4196 5.05682 12.7654 5.37267 12.8127 5.77958L12.8182 5.875V7.23864H14.7273C15.1791 7.23864 15.5455 7.60495 15.5455 8.05682C15.5455 8.47641 15.2296 8.82223 14.8227 8.8695L14.7273 8.875H12.8182V11.0568H13.3636C14.8699 11.0568 16.0909 12.2779 16.0909 13.7841C16.0909 15.2401 14.9499 16.4296 13.5133 16.5073L13.3636 16.5114H12.8182V17.875C12.8182 18.3269 12.4519 18.6932 12 18.6932C11.5804 18.6932 11.2346 18.3773 11.1873 17.9704L11.1818 17.875V16.5114H8.72727C8.2754 16.5114 7.90909 16.1451 7.90909 15.6932C7.90909 15.2736 8.22494 14.9278 8.63186 14.8805L8.72727 14.875H11.1818V12.6932H10.6364C9.13013 12.6932 7.90909 11.4721 7.90909 9.96591C7.90909 8.50989 9.05009 7.32036 10.4867 7.24267L10.6364 7.23864H11.1818V5.875C11.1818 5.42313 11.5481 5.05682 12 5.05682ZM10.6364 8.875H11.1818V11.0568H10.6364L10.5313 11.0518C9.9781 10.999 9.54545 10.533 9.54545 9.96591C9.54545 9.36342 10.0339 8.875 10.6364 8.875ZM12.8182 14.875V12.6932H13.3636L13.4687 12.6982C14.0219 12.751 14.4545 13.217 14.4545 13.7841C14.4545 14.3866 13.9661 14.875 13.3636 14.875H12.8182Z" fill="#1A1A1A"/>
</svg>
