<svg width="24" height="24" viewBox="0 0 24 24" fill="none" xmlns="http://www.w3.org/2000/svg">
<mask id="mask0_6100_2442" style="mask-type:alpha" maskUnits="userSpaceOnUse" x="0" y="0" width="24" height="24">
<rect width="24" height="24" fill="#D9D9D9"/>
</mask>
<g mask="url(#mask0_6100_2442)">
<path d="M5.99997 21.5001C5.30127 21.5001 4.70993 21.2581 4.22595 20.7741C3.74198 20.2901 3.5 19.6988 3.5 19.0001V17.404C3.5 17.1479 3.58662 16.9332 3.75987 16.76C3.93311 16.5867 4.14777 16.5001 4.40385 16.5001H6.5V3.39821C6.5 3.23539 6.57148 3.1293 6.71443 3.07994C6.85738 3.03059 6.99552 3.07258 7.12885 3.20591L7.88462 3.96166L8.96658 2.89671C9.06066 2.80411 9.16853 2.75781 9.2902 2.75781C9.41188 2.75781 9.51835 2.80461 9.6096 2.89821L10.6923 3.96166L11.7743 2.89671C11.8683 2.80411 11.9762 2.75781 12.0979 2.75781C12.2196 2.75781 12.326 2.80461 12.4173 2.89821L13.5 3.96166L14.5819 2.89671C14.676 2.80411 14.7839 2.75781 14.9056 2.75781C15.0272 2.75781 15.1337 2.80461 15.225 2.89821L16.3077 3.96166L17.3896 2.89671C17.4837 2.80411 17.5916 2.75781 17.7133 2.75781C17.8349 2.75781 17.9414 2.80461 18.0327 2.89821L19.1153 3.96166L19.8711 3.20591C20.0044 3.07258 20.1426 3.02802 20.2855 3.07224C20.4285 3.11647 20.5 3.22513 20.5 3.39821V19.0001C20.5 19.6988 20.258 20.2901 19.774 20.7741C19.29 21.2581 18.6987 21.5001 18 21.5001H5.99997ZM18 20.0001C18.2833 20.0001 18.5208 19.9043 18.7125 19.7126C18.9041 19.5209 19 19.2834 19 19.0001V5.00009H7.99998V16.5001H16.0961C16.3522 16.5001 16.5669 16.5867 16.7401 16.76C16.9134 16.9332 17 17.1479 17 17.404V19.0001C17 19.2834 17.0958 19.5209 17.2875 19.7126C17.4791 19.9043 17.7166 20.0001 18 20.0001ZM9.91727 8.75006C9.71088 8.75006 9.53844 8.67816 9.39998 8.53436C9.26153 8.39054 9.1923 8.21235 9.1923 7.99976C9.1923 7.78716 9.26417 7.60907 9.40793 7.46549C9.55166 7.3219 9.72977 7.25011 9.94228 7.25011H14.1154C14.3279 7.25011 14.506 7.32201 14.6497 7.46581C14.7935 7.60963 14.8654 7.78783 14.8654 8.00041C14.8654 8.21301 14.7935 8.3911 14.6497 8.53469C14.506 8.67827 14.3279 8.75006 14.1154 8.75006H9.91727ZM9.91727 11.7501C9.71088 11.7501 9.53844 11.6782 9.39998 11.5344C9.26153 11.3905 9.1923 11.2123 9.1923 10.9998C9.1923 10.7872 9.26417 10.6091 9.40793 10.4655C9.55166 10.3219 9.72977 10.2501 9.94228 10.2501H14.1154C14.3279 10.2501 14.506 10.322 14.6497 10.4658C14.7935 10.6096 14.8654 10.7878 14.8654 11.0004C14.8654 11.213 14.7935 11.3911 14.6497 11.5347C14.506 11.6783 14.3279 11.7501 14.1154 11.7501H9.91727ZM16.9423 8.88469C16.6974 8.88469 16.4888 8.79847 16.3163 8.62604C16.1439 8.4536 16.0577 8.24495 16.0577 8.00009C16.0577 7.75522 16.1439 7.54657 16.3163 7.37414C16.4888 7.2017 16.6974 7.11549 16.9423 7.11549C17.1871 7.11549 17.3958 7.2017 17.5682 7.37414C17.7407 7.54657 17.8269 7.75522 17.8269 8.00009C17.8269 8.24495 17.7407 8.4536 17.5682 8.62604C17.3958 8.79847 17.1871 8.88469 16.9423 8.88469ZM16.9423 11.8847C16.6974 11.8847 16.4888 11.7985 16.3163 11.626C16.1439 11.4536 16.0577 11.245 16.0577 11.0001C16.0577 10.7552 16.1439 10.5466 16.3163 10.3741C16.4888 10.2017 16.6974 10.1155 16.9423 10.1155C17.1871 10.1155 17.3958 10.2017 17.5682 10.3741C17.7407 10.5466 17.8269 10.7552 17.8269 11.0001C17.8269 11.245 17.7407 11.4536 17.5682 11.626C17.3958 11.7985 17.1871 11.8847 16.9423 11.8847ZM5.99997 20.0001H15.5V18.0001H4.99997V19.0001C4.99997 19.2834 5.09581 19.5209 5.28747 19.7126C5.47914 19.9043 5.71664 20.0001 5.99997 20.0001Z" fill="#1A1A1A"/>
</g>
</svg>
