<svg width="24" height="24" viewBox="0 0 24 24" fill="none" xmlns="http://www.w3.org/2000/svg">
<path fill-rule="evenodd" clip-rule="evenodd" d="M12 3C10.7574 3 9.75 4.00736 9.75 5.25V5.3775L9.74441 5.44833C9.72643 5.56459 9.66598 5.67055 9.57595 5.74602L9.5295 5.77875L9.48491 5.78858C9.45164 5.79804 9.41898 5.80982 9.38718 5.82385C9.20485 5.90432 8.99191 5.86571 8.84945 5.72635L8.81033 5.68717C8.3886 5.26497 7.81592 5.02757 7.21875 5.02757C6.62158 5.02757 6.0489 5.26497 5.62687 5.68747C5.20497 6.1089 4.96757 6.68158 4.96757 7.27875C4.96757 7.82616 5.16705 8.35298 5.52573 8.76205L5.67217 8.91533C5.80571 9.05191 5.84432 9.26485 5.76385 9.44718C5.677 9.67899 5.50008 9.80552 5.29996 9.81021L5.25 9.81C4.00736 9.81 3 10.8174 3 12.06C3 13.3026 4.00736 14.31 5.25 14.31H5.3775C5.56881 14.3108 5.7441 14.4269 5.82065 14.6054C5.90432 14.7951 5.86571 15.0081 5.72635 15.1506L5.68717 15.1897C5.26497 15.6114 5.02757 16.1841 5.02757 16.7812C5.02757 17.3784 5.26497 17.9511 5.68747 18.3731C6.1089 18.795 6.68158 19.0324 7.27875 19.0324C7.82616 19.0324 8.35298 18.833 8.76205 18.4743L8.91533 18.3278C9.05191 18.1943 9.26485 18.1557 9.44718 18.2361C9.67899 18.323 9.80552 18.4999 9.81021 18.7L9.81 18.75C9.81 19.9926 10.8174 21 12.06 21C13.3026 21 14.31 19.9926 14.31 18.75V18.6225C14.3108 18.4312 14.4269 18.2559 14.6054 18.1794C14.7951 18.0957 15.0081 18.1343 15.1506 18.2736L15.1897 18.3128C15.6114 18.735 16.1841 18.9724 16.7812 18.9724C17.3784 18.9724 17.9511 18.735 18.3731 18.3125C18.795 17.8911 19.0324 17.3184 19.0324 16.7213C19.0324 16.1738 18.833 15.647 18.4743 15.2379L18.3278 15.0847C18.1943 14.9481 18.1557 14.7351 18.2361 14.5528C18.3159 14.3669 18.4912 14.2508 18.6855 14.25L18.75 14.25C19.9926 14.25 21 13.2426 21 12C21 10.7574 19.9926 9.75 18.75 9.75H18.6225L18.5517 9.74441C18.4354 9.72643 18.3295 9.66598 18.254 9.57595L18.2205 9.5295L18.2114 9.48491C18.202 9.45164 18.1902 9.41898 18.1761 9.38718C18.0957 9.20485 18.1343 8.99191 18.2736 8.84945L18.3128 8.81033C18.735 8.3886 18.9724 7.81592 18.9724 7.21875C18.9724 6.62158 18.735 6.0489 18.3125 5.62687C17.8911 5.20497 17.3184 4.96757 16.7213 4.96757C16.1738 4.96757 15.647 5.16705 15.2379 5.52573L15.0847 5.67217C14.9481 5.80571 14.7351 5.84432 14.5528 5.76385C14.3669 5.6841 14.2508 5.50881 14.25 5.31451L14.25 5.25C14.25 4.00736 13.2426 3 12 3ZM12 4.5C12.4142 4.5 12.75 4.83579 12.75 5.25V5.3175C12.7532 6.11265 13.2264 6.8273 13.9546 7.13935C14.6905 7.4642 15.5586 7.30679 16.1394 6.73865L16.1903 6.68783C16.3313 6.5467 16.5222 6.46757 16.7213 6.46757C16.9203 6.46757 17.1112 6.5467 17.2519 6.68753C17.3933 6.8288 17.4724 7.01969 17.4724 7.21875C17.4724 7.41781 17.3933 7.6087 17.2525 7.74937L17.2072 7.79467L17.1102 7.90104C16.6781 8.41032 16.5312 9.09426 16.7081 9.72596L16.74 9.75C16.74 9.85157 16.7606 9.95209 16.8006 10.0454C17.1127 10.7736 17.8273 11.2468 18.6195 11.25L18.75 11.25C19.1642 11.25 19.5 11.5858 19.5 12C19.5 12.4142 19.1642 12.75 18.75 12.75H18.6825C17.8873 12.7532 17.1727 13.2264 16.8606 13.9546C16.5358 14.6905 16.6932 15.5586 17.2614 16.1394L17.3122 16.1903C17.4533 16.3313 17.5324 16.5222 17.5324 16.7213C17.5324 16.9203 17.4533 17.1112 17.3125 17.2519C17.1712 17.3933 16.9803 17.4724 16.7812 17.4724C16.5822 17.4724 16.3913 17.3933 16.2506 17.2525L16.2053 17.2072C15.6186 16.6332 14.7505 16.4758 14.0072 16.8039C13.2864 17.1127 12.8132 17.8273 12.81 18.6195L12.81 18.75C12.81 19.1642 12.4742 19.5 12.06 19.5C11.6458 19.5 11.31 19.1642 11.31 18.75V18.6825C11.2918 17.8981 10.8338 17.213 10.1414 16.9003L10.0089 16.8461C9.30951 16.5358 8.44137 16.6932 7.86055 17.2614L7.80967 17.3122C7.6687 17.4533 7.47781 17.5324 7.27875 17.5324C7.07969 17.5324 6.8888 17.4533 6.74813 17.3125C6.6067 17.1712 6.52757 16.9803 6.52757 16.7812C6.52757 16.5822 6.6067 16.3913 6.74754 16.2506L6.79283 16.2053C7.36679 15.6186 7.5242 14.7505 7.19615 14.0072C6.8873 13.2864 6.17265 12.8132 5.38049 12.81L5.25 12.81C4.83579 12.81 4.5 12.4742 4.5 12.06C4.5 11.6458 4.83579 11.31 5.25 11.31H5.3175C6.10189 11.2918 6.78696 10.8338 7.09969 10.1414L7.1539 10.0089C7.4642 9.30951 7.30679 8.44137 6.73865 7.86055L6.68783 7.80967C6.5467 7.6687 6.46757 7.47781 6.46757 7.27875C6.46757 7.07969 6.5467 6.8888 6.68753 6.74813C6.8288 6.6067 7.01969 6.52757 7.21875 6.52757C7.41781 6.52757 7.6087 6.6067 7.74937 6.74754L7.79467 6.79283L7.90104 6.88978C8.41032 7.3219 9.09426 7.46876 9.72596 7.29188L9.75 7.26C9.85157 7.26 9.95209 7.23937 10.0454 7.19936C10.7736 6.8873 11.2468 6.17265 11.25 5.38049L11.25 5.25C11.25 4.83579 11.5858 4.5 12 4.5ZM12 9C10.3431 9 9 10.3431 9 12C9 13.6569 10.3431 15 12 15C13.6569 15 15 13.6569 15 12C15 10.3431 13.6569 9 12 9ZM12 10.5C12.8284 10.5 13.5 11.1716 13.5 12C13.5 12.8284 12.8284 13.5 12 13.5C11.1716 13.5 10.5 12.8284 10.5 12C10.5 11.1716 11.1716 10.5 12 10.5Z" fill="#1A1A1A"/>
</svg>
