<svg width="24" height="24" viewBox="0 0 24 24" fill="none" xmlns="http://www.w3.org/2000/svg">
<path d="M5 7.2629C5 5.92346 5.88793 4.74631 7.17584 4.37833L8.5 4L11.5 6L14.5 4L15.8242 4.37833C17.1121 4.7463 18 5.92346 18 7.2629V18C18 19.6569 16.6569 21 15 21H14.75L11.5 18L8.25 21H8C6.34315 21 5 19.6569 5 18V7.2629Z" fill=""/>
<path d="M10.0602 15C10.0602 14.5858 10.3839 14.25 10.7831 14.25H12.2289C12.6282 14.25 12.9518 14.5858 12.9518 15C12.9518 15.4142 12.6282 15.75 12.2289 15.75H10.7831C10.3839 15.75 10.0602 15.4142 10.0602 15Z" fill="#1A1A1A"/>
<path fill-rule="evenodd" clip-rule="evenodd" d="M14.3976 3H14.3036C13.6382 3.00656 13.0612 3.47904 12.9005 4.149C12.7284 4.80088 12.1575 5.25288 11.506 5.25288C10.8546 5.25288 10.2836 4.80088 10.1116 4.149C9.95082 3.47904 9.37385 3.00656 8.70843 3H8.61447C6.61924 3.00248 5.00239 4.67996 5 6.75001V18.75C5 19.9927 5.97095 21 7.16867 21H8.70843C9.37385 20.9935 9.95082 20.521 10.1116 19.851C10.2836 19.1991 10.8546 18.7471 11.506 18.7471C12.1575 18.7471 12.7284 19.1991 12.9005 19.851C13.0612 20.521 13.6382 20.9935 14.3036 21H15.8434C17.0411 21 18.012 19.9927 18.012 18.75V6.75001C18.0097 4.67996 16.3928 3.00248 14.3976 3ZM15.8434 19.5L14.2942 19.4528C13.9451 18.1442 12.7925 17.2421 11.4839 17.2531C10.1752 17.2642 9.03692 18.1857 8.70843 19.5H7.16867C6.76943 19.5 6.44578 19.1642 6.44578 18.75V15.75H7.89156C8.29081 15.75 8.61447 15.4142 8.61447 15C8.61447 14.5858 8.29081 14.25 7.89156 14.25H6.44578V6.75001C6.44578 5.50736 7.41673 4.5 8.61447 4.5L8.71782 4.54725C9.06579 5.84723 10.2056 6.74773 11.506 6.75001C12.8239 6.73836 13.9736 5.81917 14.3202 4.5H14.3976C15.5953 4.5 16.5663 5.50736 16.5663 6.75001V14.25H15.1205C14.7212 14.25 14.3976 14.5858 14.3976 15C14.3976 15.4142 14.7212 15.75 15.1205 15.75H16.5663V18.75C16.5663 19.1642 16.2426 19.5 15.8434 19.5Z" fill="#1A1A1A"/>
</svg>
