<?xml version="1.0" encoding="UTF-8" standalone="no"?>
<!DOCTYPE svg PUBLIC "-//W3C//DTD SVG 1.1//EN" "http://www.w3.org/Graphics/SVG/1.1/DTD/svg11.dtd">
<svg xmlns="http://www.w3.org/2000/svg" version="1.1" viewBox="0.00 0.00 1200.00 1200.00">
<g stroke-width="2.00" fill="none" stroke-linecap="butt">
<path stroke="#92b5d8" vector-effect="non-scaling-stroke" d="
  M 1045.72 600.55
  A 445.14 445.14 0.0 0 0 600.58 155.41
  A 445.14 445.14 0.0 0 0 155.44 600.55
  A 445.14 445.14 0.0 0 0 600.58 1045.69
  A 445.14 445.14 0.0 0 0 1045.72 600.55"
/>
<path stroke="#92b5d8" vector-effect="non-scaling-stroke" d="
  M 265.23 615.62
  Q 288.45 561.46 324.86 515.12
  C 367.93 460.31 421.60 414.40 481.45 377.90
  Q 556.71 332.00 639.16 308.68
  Q 694.16 293.12 748.97 289.84
  Q 803.43 286.57 855.46 298.64
  Q 856.10 298.79 855.62 298.33
  Q 808.88 253.94 750.86 228.64
  C 592.08 159.40 404.84 216.80 294.12 344.87
  Q 258.27 386.34 236.31 433.34
  Q 186.72 539.43 207.88 656.72
  Q 216.43 704.08 234.95 747.42
  Q 235.14 747.86 235.16 747.38
  Q 237.96 679.22 265.23 615.62"
/>
<path stroke="#92b5d8" vector-effect="non-scaling-stroke" d="
  M 786.17 391.46
  C 811.24 403.70 832.17 422.77 848.25 445.65
  A 0.33 0.33 0.0 0 0 848.83 445.57
  L 888.73 333.25
  Q 888.96 332.61 888.30 332.43
  Q 860.39 324.85 832.38 320.68
  Q 701.77 301.23 584.93 358.99
  C 527.82 387.22 476.88 427.26 432.36 472.48
  Q 431.35 473.51 432.59 472.79
  Q 443.53 466.45 459.18 457.67
  Q 514.77 426.48 568.71 405.10
  Q 595.70 394.41 623.76 386.73
  C 676.50 372.28 735.54 366.75 786.17 391.46"
/>
<path stroke="#92b5d8" vector-effect="non-scaling-stroke" d="
  M 886.88 877.81
  C 945.04 819.78 984.37 744.96 995.94 663.48
  C 1006.00 592.65 994.32 520.33 966.36 454.04
  Q 965.91 452.98 965.86 454.13
  C 962.89 527.15 937.76 596.74 896.84 657.37
  Q 858.65 713.94 806.57 759.26
  Q 700.70 851.41 566.73 890.97
  C 520.56 904.61 471.99 912.31 424.00 911.92
  Q 384.16 911.59 345.83 902.38
  Q 344.61 902.09 345.53 902.95
  C 362.94 919.24 382.15 934.35 402.50 947.11
  Q 489.36 1001.61 593.29 1002.14
  Q 603.10 1002.19 613.24 1001.63
  Q 664.27 998.80 710.53 984.28
  Q 812.15 952.37 886.88 877.81"
/>
<path stroke="#e19193" vector-effect="non-scaling-stroke" d="
  M 424.29 569.00
  A 0.35 0.35 0.0 0 1 424.88 569.25
  L 424.87 626.23
  A 0.35 0.35 0.0 0 1 424.52 626.58
  L 381.07 626.58
  A 0.35 0.35 0.0 0 0 380.83 626.68
  L 325.30 679.66
  A 0.35 0.35 0.0 0 0 325.54 680.26
  L 424.52 680.25
  A 0.35 0.35 0.0 0 1 424.87 680.60
  L 424.87 709.61
  A 0.35 0.35 0.0 0 0 425.22 709.96
  L 480.47 709.95
  A 0.35 0.35 0.0 0 0 480.82 709.60
  L 480.82 490.93
  A 0.35 0.35 0.0 0 0 480.47 490.58
  L 425.02 490.58
  A 0.35 0.35 0.0 0 0 424.78 490.68
  L 269.49 637.47
  A 0.35 0.35 0.0 0 0 269.38 637.72
  L 269.36 714.12
  A 0.35 0.35 0.0 0 0 269.95 714.37
  L 424.29 569.00"
/>
<path stroke="#e19193" vector-effect="non-scaling-stroke" d="
  M 496.16 548.00
  A 0.31 0.31 0.0 0 0 496.47 548.31
  L 541.78 548.32
  A 0.31 0.31 0.0 0 1 542.09 548.63
  L 542.09 709.84
  A 0.31 0.31 0.0 0 0 542.40 710.15
  L 602.13 710.16
  A 0.31 0.31 0.0 0 0 602.44 709.85
  L 602.44 548.63
  A 0.31 0.31 0.0 0 1 602.75 548.32
  L 636.39 548.31
  A 0.31 0.31 0.0 0 0 636.60 548.22
  L 696.29 491.49
  A 0.31 0.31 0.0 0 0 696.07 490.96
  L 496.47 490.96
  A 0.31 0.31 0.0 0 0 496.16 491.27
  L 496.16 548.00"
/>
<path stroke="#e19193" vector-effect="non-scaling-stroke" d="
  M 711.23 543.69
  L 822.38 543.69
  Q 822.97 543.69 823.39 543.29
  L 878.13 491.34
  Q 878.53 490.96 877.97 490.96
  L 711.49 490.96
  A 1.60 1.58 23.0 0 0 710.39 491.40
  L 655.69 543.22
  A 1.46 1.45 -22.4 0 0 655.25 544.26
  L 655.25 709.95
  A 0.20 0.20 0.0 0 0 655.45 710.15
  Q 719.46 710.16 783.25 709.99
  Q 795.02 709.96 805.02 704.62
  Q 816.31 698.60 823.94 689.09
  Q 845.44 662.32 839.80 626.78
  C 835.90 602.18 820.01 581.50 795.29 575.65
  Q 788.66 574.08 777.68 574.15
  Q 749.84 574.34 723.62 574.18
  Q 723.00 574.17 723.00 574.80
  L 723.00 626.24
  Q 723.00 626.83 723.59 626.83
  Q 747.13 626.84 770.50 626.85
  Q 782.75 626.85 785.04 638.32
  C 786.92 647.76 782.11 657.40 771.46 657.41
  Q 741.12 657.42 711.31 657.41
  A 0.41 0.41 0.0 0 1 710.90 657.00
  L 710.90 544.02
  A 0.33 0.33 0.0 0 1 711.23 543.69"
/>
<path stroke="#92b5d8" vector-effect="non-scaling-stroke" d="
  M 408.84 806.46
  C 386.42 794.18 367.80 776.44 352.87 755.46
  A 0.34 0.34 0.0 0 0 352.27 755.55
  L 312.25 868.20
  A 0.23 0.23 0.0 0 0 312.41 868.50
  Q 351.89 879.36 392.73 883.28
  Q 510.51 894.59 616.86 841.65
  C 673.12 813.64 724.26 773.88 768.26 729.04
  Q 770.14 727.12 767.83 728.49
  Q 719.41 757.19 670.20 779.87
  C 625.87 800.30 577.99 817.34 530.26 824.15
  C 489.15 830.02 445.65 826.63 408.84 806.46"
/>
</g>
<path fill="#256bb1" d="
  M 60.23 998.21
  L 60.24 202.84
  A 142.62 142.62 0.0 0 1 202.86 60.22
  L 998.27 60.23
  A 142.62 142.62 0.0 0 1 1140.89 202.85
  L 1140.89 998.20
  A 142.62 142.62 0.0 0 1 998.27 1140.82
  L 202.85 1140.83
  A 142.62 142.62 0.0 0 1 60.23 998.21
  Z
  M 1128.69 206.47
  A 134.01 134.01 0.0 0 0 994.68 72.46
  L 206.48 72.46
  A 134.01 134.01 0.0 0 0 72.47 206.47
  L 72.47 994.61
  A 134.01 134.01 0.0 0 0 206.48 1128.62
  L 994.68 1128.62
  A 134.01 134.01 0.0 0 0 1128.69 994.61
  L 1128.69 206.47
  Z"
/>
<path fill="#256bb1" d="
  M 103.29 985.56
  L 103.30 215.54
  A 112.27 112.27 0.0 0 1 215.57 103.27
  L 985.61 103.26
  A 112.27 112.27 0.0 0 1 1097.88 215.53
  L 1097.90 985.56
  A 112.27 112.27 0.0 0 1 985.63 1097.83
  L 215.56 1097.83
  A 112.27 112.27 0.0 0 1 103.29 985.56
  Z
  M 1045.72 600.55
  A 445.14 445.14 0.0 0 0 600.58 155.41
  A 445.14 445.14 0.0 0 0 155.44 600.55
  A 445.14 445.14 0.0 0 0 600.58 1045.69
  A 445.14 445.14 0.0 0 0 1045.72 600.55
  Z"
/>
<path fill="#fefefe" d="
  M 1045.72 600.55
  A 445.14 445.14 0.0 0 1 600.58 1045.69
  A 445.14 445.14 0.0 0 1 155.44 600.55
  A 445.14 445.14 0.0 0 1 600.58 155.41
  A 445.14 445.14 0.0 0 1 1045.72 600.55
  Z
  M 265.23 615.62
  Q 288.45 561.46 324.86 515.12
  C 367.93 460.31 421.60 414.40 481.45 377.90
  Q 556.71 332.00 639.16 308.68
  Q 694.16 293.12 748.97 289.84
  Q 803.43 286.57 855.46 298.64
  Q 856.10 298.79 855.62 298.33
  Q 808.88 253.94 750.86 228.64
  C 592.08 159.40 404.84 216.80 294.12 344.87
  Q 258.27 386.34 236.31 433.34
  Q 186.72 539.43 207.88 656.72
  Q 216.43 704.08 234.95 747.42
  Q 235.14 747.86 235.16 747.38
  Q 237.96 679.22 265.23 615.62
  Z
  M 786.17 391.46
  C 811.24 403.70 832.17 422.77 848.25 445.65
  A 0.33 0.33 0.0 0 0 848.83 445.57
  L 888.73 333.25
  Q 888.96 332.61 888.30 332.43
  Q 860.39 324.85 832.38 320.68
  Q 701.77 301.23 584.93 358.99
  C 527.82 387.22 476.88 427.26 432.36 472.48
  Q 431.35 473.51 432.59 472.79
  Q 443.53 466.45 459.18 457.67
  Q 514.77 426.48 568.71 405.10
  Q 595.70 394.41 623.76 386.73
  C 676.50 372.28 735.54 366.75 786.17 391.46
  Z
  M 886.88 877.81
  C 945.04 819.78 984.37 744.96 995.94 663.48
  C 1006.00 592.65 994.32 520.33 966.36 454.04
  Q 965.91 452.98 965.86 454.13
  C 962.89 527.15 937.76 596.74 896.84 657.37
  Q 858.65 713.94 806.57 759.26
  Q 700.70 851.41 566.73 890.97
  C 520.56 904.61 471.99 912.31 424.00 911.92
  Q 384.16 911.59 345.83 902.38
  Q 344.61 902.09 345.53 902.95
  C 362.94 919.24 382.15 934.35 402.50 947.11
  Q 489.36 1001.61 593.29 1002.14
  Q 603.10 1002.19 613.24 1001.63
  Q 664.27 998.80 710.53 984.28
  Q 812.15 952.37 886.88 877.81
  Z
  M 424.29 569.00
  A 0.35 0.35 0.0 0 1 424.88 569.25
  L 424.87 626.23
  A 0.35 0.35 0.0 0 1 424.52 626.58
  L 381.07 626.58
  A 0.35 0.35 0.0 0 0 380.83 626.68
  L 325.30 679.66
  A 0.35 0.35 0.0 0 0 325.54 680.26
  L 424.52 680.25
  A 0.35 0.35 0.0 0 1 424.87 680.60
  L 424.87 709.61
  A 0.35 0.35 0.0 0 0 425.22 709.96
  L 480.47 709.95
  A 0.35 0.35 0.0 0 0 480.82 709.60
  L 480.82 490.93
  A 0.35 0.35 0.0 0 0 480.47 490.58
  L 425.02 490.58
  A 0.35 0.35 0.0 0 0 424.78 490.68
  L 269.49 637.47
  A 0.35 0.35 0.0 0 0 269.38 637.72
  L 269.36 714.12
  A 0.35 0.35 0.0 0 0 269.95 714.37
  L 424.29 569.00
  Z
  M 496.16 548.00
  A 0.31 0.31 0.0 0 0 496.47 548.31
  L 541.78 548.32
  A 0.31 0.31 0.0 0 1 542.09 548.63
  L 542.09 709.84
  A 0.31 0.31 0.0 0 0 542.40 710.15
  L 602.13 710.16
  A 0.31 0.31 0.0 0 0 602.44 709.85
  L 602.44 548.63
  A 0.31 0.31 0.0 0 1 602.75 548.32
  L 636.39 548.31
  A 0.31 0.31 0.0 0 0 636.60 548.22
  L 696.29 491.49
  A 0.31 0.31 0.0 0 0 696.07 490.96
  L 496.47 490.96
  A 0.31 0.31 0.0 0 0 496.16 491.27
  L 496.16 548.00
  Z
  M 711.23 543.69
  L 822.38 543.69
  Q 822.97 543.69 823.39 543.29
  L 878.13 491.34
  Q 878.53 490.96 877.97 490.96
  L 711.49 490.96
  A 1.60 1.58 23.0 0 0 710.39 491.40
  L 655.69 543.22
  A 1.46 1.45 -22.4 0 0 655.25 544.26
  L 655.25 709.95
  A 0.20 0.20 0.0 0 0 655.45 710.15
  Q 719.46 710.16 783.25 709.99
  Q 795.02 709.96 805.02 704.62
  Q 816.31 698.60 823.94 689.09
  Q 845.44 662.32 839.80 626.78
  C 835.90 602.18 820.01 581.50 795.29 575.65
  Q 788.66 574.08 777.68 574.15
  Q 749.84 574.34 723.62 574.18
  Q 723.00 574.17 723.00 574.80
  L 723.00 626.24
  Q 723.00 626.83 723.59 626.83
  Q 747.13 626.84 770.50 626.85
  Q 782.75 626.85 785.04 638.32
  C 786.92 647.76 782.11 657.40 771.46 657.41
  Q 741.12 657.42 711.31 657.41
  A 0.41 0.41 0.0 0 1 710.90 657.00
  L 710.90 544.02
  A 0.33 0.33 0.0 0 1 711.23 543.69
  Z
  M 408.84 806.46
  C 386.42 794.18 367.80 776.44 352.87 755.46
  A 0.34 0.34 0.0 0 0 352.27 755.55
  L 312.25 868.20
  A 0.23 0.23 0.0 0 0 312.41 868.50
  Q 351.89 879.36 392.73 883.28
  Q 510.51 894.59 616.86 841.65
  C 673.12 813.64 724.26 773.88 768.26 729.04
  Q 770.14 727.12 767.83 728.49
  Q 719.41 757.19 670.20 779.87
  C 625.87 800.30 577.99 817.34 530.26 824.15
  C 489.15 830.02 445.65 826.63 408.84 806.46
  Z"
/>
<path fill="#256bb1" d="
  M 265.23 615.62
  Q 237.96 679.22 235.16 747.38
  Q 235.14 747.86 234.95 747.42
  Q 216.43 704.08 207.88 656.72
  Q 186.72 539.43 236.31 433.34
  Q 258.27 386.34 294.12 344.87
  C 404.84 216.80 592.08 159.40 750.86 228.64
  Q 808.88 253.94 855.62 298.33
  Q 856.10 298.79 855.46 298.64
  Q 803.43 286.57 748.97 289.84
  Q 694.16 293.12 639.16 308.68
  Q 556.71 332.00 481.45 377.90
  C 421.60 414.40 367.93 460.31 324.86 515.12
  Q 288.45 561.46 265.23 615.62
  Z"
/>
<path fill="#256bb1" d="
  M 786.17 391.46
  C 735.54 366.75 676.50 372.28 623.76 386.73
  Q 595.70 394.41 568.71 405.10
  Q 514.77 426.48 459.18 457.67
  Q 443.53 466.45 432.59 472.79
  Q 431.35 473.51 432.36 472.48
  C 476.88 427.26 527.82 387.22 584.93 358.99
  Q 701.77 301.23 832.38 320.68
  Q 860.39 324.85 888.30 332.43
  Q 888.96 332.61 888.73 333.25
  L 848.83 445.57
  A 0.33 0.33 0.0 0 1 848.25 445.65
  C 832.17 422.77 811.24 403.70 786.17 391.46
  Z"
/>
<path fill="#256bb1" d="
  M 995.94 663.48
  C 984.37 744.96 945.04 819.78 886.88 877.81
  Q 812.15 952.37 710.53 984.28
  Q 664.27 998.80 613.24 1001.63
  Q 603.10 1002.19 593.29 1002.14
  Q 489.36 1001.61 402.50 947.11
  C 382.15 934.35 362.94 919.24 345.53 902.95
  Q 344.61 902.09 345.83 902.38
  Q 384.16 911.59 424.00 911.92
  C 471.99 912.31 520.56 904.61 566.73 890.97
  Q 700.70 851.41 806.57 759.26
  Q 858.65 713.94 896.84 657.37
  C 937.76 596.74 962.89 527.15 965.86 454.13
  Q 965.91 452.98 966.36 454.04
  C 994.32 520.33 1006.00 592.65 995.94 663.48
  Z"
/>
<path fill="#c32328" d="
  M 424.29 569.00
  L 269.95 714.37
  A 0.35 0.35 0.0 0 1 269.36 714.12
  L 269.38 637.72
  A 0.35 0.35 0.0 0 1 269.49 637.47
  L 424.78 490.68
  A 0.35 0.35 0.0 0 1 425.02 490.58
  L 480.47 490.58
  A 0.35 0.35 0.0 0 1 480.82 490.93
  L 480.82 709.60
  A 0.35 0.35 0.0 0 1 480.47 709.95
  L 425.22 709.96
  A 0.35 0.35 0.0 0 1 424.87 709.61
  L 424.87 680.60
  A 0.35 0.35 0.0 0 0 424.52 680.25
  L 325.54 680.26
  A 0.35 0.35 0.0 0 1 325.30 679.66
  L 380.83 626.68
  A 0.35 0.35 0.0 0 1 381.07 626.58
  L 424.52 626.58
  A 0.35 0.35 0.0 0 0 424.87 626.23
  L 424.88 569.25
  A 0.35 0.35 0.0 0 0 424.29 569.00
  Z"
/>
<path fill="#c32328" d="
  M 496.16 548.00
  L 496.16 491.27
  A 0.31 0.31 0.0 0 1 496.47 490.96
  L 696.07 490.96
  A 0.31 0.31 0.0 0 1 696.29 491.49
  L 636.60 548.22
  A 0.31 0.31 0.0 0 1 636.39 548.31
  L 602.75 548.32
  A 0.31 0.31 0.0 0 0 602.44 548.63
  L 602.44 709.85
  A 0.31 0.31 0.0 0 1 602.13 710.16
  L 542.40 710.15
  A 0.31 0.31 0.0 0 1 542.09 709.84
  L 542.09 548.63
  A 0.31 0.31 0.0 0 0 541.78 548.32
  L 496.47 548.31
  A 0.31 0.31 0.0 0 1 496.16 548.00
  Z"
/>
<path fill="#c32328" d="
  M 711.23 543.69
  A 0.33 0.33 0.0 0 0 710.90 544.02
  L 710.90 657.00
  A 0.41 0.41 0.0 0 0 711.31 657.41
  Q 741.12 657.42 771.46 657.41
  C 782.11 657.40 786.92 647.76 785.04 638.32
  Q 782.75 626.85 770.50 626.85
  Q 747.13 626.84 723.59 626.83
  Q 723.00 626.83 723.00 626.24
  L 723.00 574.80
  Q 723.00 574.17 723.62 574.18
  Q 749.84 574.34 777.68 574.15
  Q 788.66 574.08 795.29 575.65
  C 820.01 581.50 835.90 602.18 839.80 626.78
  Q 845.44 662.32 823.94 689.09
  Q 816.31 698.60 805.02 704.62
  Q 795.02 709.96 783.25 709.99
  Q 719.46 710.16 655.45 710.15
  A 0.20 0.20 0.0 0 1 655.25 709.95
  L 655.25 544.26
  A 1.46 1.45 -22.4 0 1 655.69 543.22
  L 710.39 491.40
  A 1.60 1.58 23.0 0 1 711.49 490.96
  L 877.97 490.96
  Q 878.53 490.96 878.13 491.34
  L 823.39 543.29
  Q 822.97 543.69 822.38 543.69
  L 711.23 543.69
  Z"
/>
<path fill="#256bb1" d="
  M 408.84 806.46
  C 445.65 826.63 489.15 830.02 530.26 824.15
  C 577.99 817.34 625.87 800.30 670.20 779.87
  Q 719.41 757.19 767.83 728.49
  Q 770.14 727.12 768.26 729.04
  C 724.26 773.88 673.12 813.64 616.86 841.65
  Q 510.51 894.59 392.73 883.28
  Q 351.89 879.36 312.41 868.50
  A 0.23 0.23 0.0 0 1 312.25 868.20
  L 352.27 755.55
  A 0.34 0.34 0.0 0 1 352.87 755.46
  C 367.80 776.44 386.42 794.18 408.84 806.46
  Z"
/>
</svg>
